<svg xmlns="http://www.w3.org/2000/svg" width="px" height="px" viewBox="0 0 500 483"><defs><linearGradient id="a" x1="0" x2="1" y1="0" y2="0" gradientTransform="matrix(472.74219 0 0 471.0039 11.352 8.012)" gradientUnits="userSpaceOnUse"><stop offset="0" style="stop-color:#ea2845;stop-opacity:1"/><stop offset="1" style="stop-color:#ea2868;stop-opacity:1"/></linearGradient></defs><path d="M289.773 8.012c-3.418 0-6.593.734-9.523 1.71 6.227 4.153 9.645 9.65 11.355 15.876.125.855.368 1.465.489 2.32.12.734.246 1.465.246 2.2.488 10.745-2.813 12.089-5.133 18.437-3.539 8.183-2.562 16.976 1.711 24.058.367.856.855 1.832 1.469 2.688-4.645-30.899 21.125-35.535 25.886-45.188.368-8.422-6.597-14.039-12.09-17.945-5.253-3.176-10.015-4.156-14.41-4.156m38.832 6.96c-.488 2.81-.12 2.079-.242 3.544-.12.976-.12 2.199-.246 3.175-.242.977-.488 1.954-.851 2.93-.246.977-.614 1.953-.98 2.93-.49.98-.852 1.832-1.34 2.808-.368.489-.614.98-.981 1.465l-.73 1.102c-.614.855-1.223 1.71-1.833 2.441-.734.735-1.343 1.586-2.199 2.2v.12c-.73.61-1.465 1.344-2.32 1.954-2.563 1.953-5.496 3.422-8.184 5.254-.851.609-1.707 1.097-2.441 1.828a18 18 0 0 0-2.317 1.957c-.855.73-1.468 1.465-2.199 2.32-.613.73-1.344 1.586-1.832 2.441-.61.852-1.223 1.711-1.71 2.563-.49.976-.856 1.836-1.34 2.809-.368.976-.735 1.832-.981 2.812a41 41 0 0 0-.856 3.05c-.12.49-.12 1.098-.242 1.587-.125.492-.125.976-.246 1.468 0 .973-.12 2.075-.12 3.051 0 .735 0 1.465.12 2.2 0 .976.125 1.953.367 3.05.125.977.368 1.957.614 2.93.363.98.609 1.953.976 2.934.246.609.61 1.222.852 1.707l-28.086-10.868a305 305 0 0 0-14.164-3.664l-7.692-1.832a227 227 0 0 0-22.226-3.297c-.246 0-.367-.12-.61-.12a218 218 0 0 0-21.859-1.098c-5.375 0-10.746.246-15.996.609-7.453.488-14.902 1.465-22.348 2.688-1.832.242-3.668.609-5.496.976-3.785.73-7.449 1.586-10.992 2.442l-5.492 1.464c-1.836.735-3.543 1.59-5.254 2.32l-4.027 1.833c-.247.12-.493.12-.614.246-1.218.61-2.32 1.097-3.418 1.707-.367.12-.61.246-.855.367-1.34.61-2.684 1.344-3.785 1.953-.856.367-1.711.856-2.442 1.223-.367.242-.855.488-1.097.61-1.102.612-2.2 1.222-3.176 1.831a31 31 0 0 0-2.934 1.832c-.851.61-1.707 1.098-2.441 1.711-.121.121-.246.121-.363.242a28 28 0 0 0-2.325 1.711l-.242.242-1.832 1.465c-.246.125-.492.368-.73.493-.614.484-1.223 1.097-1.836 1.585-.121.243-.364.368-.489.489-.73.73-1.46 1.343-2.195 2.074-.125 0-.125.125-.246.246-.73.61-1.465 1.344-2.2 2.078-.12.117-.12.242-.241.242a28 28 0 0 0-1.832 1.953c-.246.247-.61.489-.856.73-.61.735-1.344 1.47-2.074 2.2-.125.246-.367.367-.488.613-.977.977-1.832 1.954-2.809 2.93l-.367.363c-1.953 2.079-4.031 4.153-6.227 5.989a71 71 0 0 1-6.84 5.37 93 93 0 0 1-7.328 4.641 74 74 0 0 1-7.691 3.664 89 89 0 0 1-7.938 2.93c-5.129 1.102-10.379 3.176-14.898 3.543-.977 0-2.074.246-3.05.363-1.102.246-2.079.489-3.056.735l-2.93 1.097c-.98.368-1.956.856-2.933 1.344-.855.61-1.832 1.098-2.683 1.711a20 20 0 0 0-2.446 2.074c-.855.61-1.707 1.47-2.441 2.2-.734.855-1.465 1.585-2.078 2.441-.61.98-1.34 1.832-1.828 2.809a21.5 21.5 0 0 0-1.711 2.808c-.492 1.102-.977 2.078-1.344 3.176q-.575 1.576-1.098 3.176c-.246.976-.488 1.953-.613 2.93 0 .12-.121.245-.121.367-.242 1.097-.242 2.562-.367 3.296-.121.856-.242 1.586-.242 2.442 0 .488 0 1.101.12 1.586.126.86.247 1.59.493 2.324.242.73.484 1.461.851 2.195v.125c.368.73.856 1.465 1.344 2.196.488.734.977 1.468 1.586 2.199.613.61 1.344 1.344 2.078 1.953.73.734 1.465 1.344 2.32 1.953 2.93 2.567 3.665 3.422 7.45 5.375.61.367 1.218.61 1.953.977.125 0 .242.12.367.12 0 .247 0 .368.121.614.121.977.367 1.953.613 2.93a16.5 16.5 0 0 0 .973 2.93c.367.734.613 1.464.977 2.199.125.246.246.488.367.609.492.977.976 1.832 1.469 2.688l1.828 2.566c.613.73 1.343 1.586 2.078 2.316.73.735 1.465 1.344 2.32 2.078 0 0 .121.122.246.122.73.613 1.465 1.222 2.196 1.71.855.61 1.71 1.098 2.687 1.586.856.493 1.832.977 2.809 1.344.73.367 1.586.61 2.441.856.125.125.246.125.488.246.493.12 1.098.242 1.586.363-.363 6.598-.488 12.824.492 15.02 1.098 2.441 6.473-5.008 11.844-13.555-.734 8.426-1.222 18.32 0 21.25 1.344 3.05 8.668-6.473 15.02-16.973 86.582-20.027 165.59 39.809 173.894 124.313-1.59-13.192-17.832-20.516-25.281-18.684-3.66 9.035-9.89 20.637-19.902 27.84a78.3 78.3 0 0 0-1.223-24.422c-2.684 11.234-7.937 21.734-15.14 30.774-11.602.855-23.204-4.762-29.31-13.188-.487-.367-.609-1.098-.976-1.59-.367-.851-.734-1.707-.976-2.562a10.3 10.3 0 0 1-.735-2.567c-.12-.851-.12-1.707-.12-2.683v-1.832c.12-.856.366-1.711.609-2.567.246-.855.488-1.707.855-2.562.488-.856.856-1.711 1.465-2.567 2.078-5.859 2.078-10.625-1.707-13.433a14 14 0 0 0-2.32-1.219c-.493-.125-1.102-.367-1.59-.488-.367-.121-.61-.246-.977-.367-.855-.247-1.71-.489-2.562-.614a9.5 9.5 0 0 0-2.567-.363c-.855-.121-1.832-.246-2.687-.246-.61 0-1.219.125-1.832.125a9.4 9.4 0 0 0-2.684.363c-.855.125-1.71.246-2.566.492-.856.243-1.711.489-2.563.852-.855.367-1.59.734-2.441 1.101-.735.364-1.469.856-2.32 1.223-28.454 18.559-11.481 62.031 7.933 74.61-7.324 1.343-14.773 2.93-16.848 4.519l-.246.246c5.254 3.172 10.746 5.86 16.485 8.18a405 405 0 0 0 19.785 5.863v.121a118 118 0 0 0 30.773 2.195c54.094-3.785 98.422-44.937 106.485-99.156.246 1.098.488 2.078.73 3.176.367 2.2.856 4.516 1.098 6.836v.125c.246 1.098.367 2.2.492 3.176v.488c.121 1.098.246 2.2.246 3.176.121 1.34.242 2.683.242 4.027v1.953c0 .614.121 1.344.121 1.957 0 .73-.12 1.461-.12 2.196v1.71c0 .856-.126 1.587-.126 2.442 0 .488 0 .977-.12 1.586 0 .86-.122 1.71-.122 2.687-.125.368-.125.735-.125 1.098-.121.98-.242 1.836-.367 2.813 0 .367 0 .73-.121 1.097-.121 1.219-.363 2.32-.488 3.54v.245c-.243 1.098-.489 2.32-.735 3.422v.364l-.73 3.3c0 .121-.121.364-.121.485-.247 1.101-.493 2.199-.856 3.3v.364c-.367 1.222-.734 2.324-.976 3.422-.125.12-.125.242-.125.242l-1.098 3.664c-.488 1.223-.856 2.32-1.344 3.543-.488 1.219-.855 2.441-1.344 3.539-.488 1.223-.976 2.32-1.464 3.543h-.122c-.492 1.098-.976 2.32-1.585 3.418-.125.367-.247.61-.368.855-.125.121-.125.246-.246.368-7.937 15.996-19.66 30.039-34.312 41.03-.98.61-1.957 1.34-2.93 2.075-.246.246-.613.367-.855.61-.856.613-1.711 1.222-2.688 1.835l.363.73h.125l5.13-.734h.12c3.176-.488 6.352-1.097 9.528-1.707.851-.125 1.832-.367 2.683-.613.614-.121 1.102-.242 1.711-.363.856-.125 1.711-.367 2.563-.492.734-.243 1.469-.368 2.199-.61 12.215-2.93 24.059-6.96 35.414-11.722-19.414 26.5-45.43 47.867-75.836 61.914 14.047-.977 28.09-3.297 41.645-7.207 49.214-14.532 90.609-47.625 115.398-92.2a194.94 194.94 0 0 1-32.848 78.52 192 192 0 0 0 32.602-27.106c27.355-28.574 45.309-64.843 51.414-103.796a194.4 194.4 0 0 1 3.54 58.855c88.167-122.969 7.327-250.457-26.5-284.039-.122-.242-.243-.367-.243-.61-.121.122-.121.122-.121.247 0-.125 0-.125-.125-.246 0 1.464-.121 2.93-.242 4.394-.368 2.809-.735 5.496-1.223 8.184-.61 2.683-1.34 5.37-2.074 8.058a103 103 0 0 1-2.93 7.817 107 107 0 0 1-3.668 7.449c-1.34 2.32-2.805 4.762-4.394 6.957a93 93 0 0 1-5.008 6.598c-1.832 2.195-3.781 4.152-5.739 6.101a75 75 0 0 1-3.539 3.055c-.976.855-1.832 1.59-2.812 2.445-2.195 1.707-4.395 3.297-6.836 4.762-2.32 1.465-4.762 2.93-7.207 4.152-2.563 1.219-5.125 2.32-7.688 3.418a86 86 0 0 1-7.941 2.563q-4.052 1.09-8.184 1.836c-2.808.484-5.613.73-8.3.976-1.957.121-3.91.242-5.864.242-2.808 0-5.617-.246-8.304-.488-2.809-.246-5.618-.61-8.301-1.223-2.809-.488-5.496-1.218-8.184-2.074h-.12c2.687-.246 5.37-.488 8.058-.976a89 89 0 0 0 8.183-1.832 87 87 0 0 0 7.938-2.567c2.683-.976 5.25-2.195 7.691-3.418 2.567-1.218 4.887-2.562 7.328-4.031 2.32-1.586 4.641-3.176 6.84-4.883a67 67 0 0 0 6.227-5.496c2.074-1.832 3.906-3.906 5.738-5.984a120 120 0 0 0 5.129-6.594c.246-.367.488-.852.734-1.219 1.22-1.957 2.442-3.91 3.54-5.863a84.648 84.648 0 0 0 6.594-15.262c.855-2.566 1.468-5.254 2.077-7.937.489-2.813.977-5.5 1.22-8.184.245-2.808.491-5.617.491-8.305 0-1.953-.125-3.906-.246-5.859-.242-2.808-.61-5.496-.976-8.183a89 89 0 0 0-1.832-8.184c-.856-2.563-1.711-5.25-2.688-7.813-.976-2.566-2.195-5.129-3.418-7.57-1.344-2.445-2.687-4.887-4.152-7.207a135 135 0 0 0-4.883-6.715q-2.759-3.163-5.617-6.226a76 76 0 0 0-3.176-3.055 225 225 0 0 0-16.977-11.969 23 23 0 0 0-2.441-1.222c-4.027-2.563-7.812-3.907-11.602-5.13" style="stroke:none;fill-rule:evenodd;fill:url(#a)"/></svg>