<svg xmlns="http://www.w3.org/2000/svg" width="px" height="px" viewBox="0 0 500 250"><path d="M0 125q25-25.002 50 0c16.668 16.668 33.332 16.668 50 0s33.332-16.668 50 0 33.332 16.668 50 0 33.332-16.668 50 0 33.332 16.668 50 0 33.332-16.668 50 0q25 25.002 50 0t50 0 50 0v125H0Zm0 0" style="stroke:none;fill-rule:nonzero;fill:#fff;fill-opacity:1"/><path d="M0 135q25-25.002 50 0c16.668 16.668 33.332 16.668 50 0s33.332-16.668 50 0 33.332 16.668 50 0 33.332-16.668 50 0 33.332 16.668 50 0 33.332-16.668 50 0q25 25.002 50 0t50 0 50 0v115H0Zm0 0" style="stroke:none;fill-rule:nonzero;fill:#fff;fill-opacity:1"/><path d="M0 145q25-25.002 50 0c16.668 16.668 33.332 16.668 50 0s33.332-16.668 50 0 33.332 16.668 50 0 33.332-16.668 50 0 33.332 16.668 50 0 33.332-16.668 50 0q25 25.002 50 0t50 0 50 0v105H0Zm0 0" style="stroke:none;fill-rule:nonzero;fill:#fff;fill-opacity:1"/><path d="M0 155q25-25.002 50 0c16.668 16.668 33.332 16.668 50 0s33.332-16.668 50 0 33.332 16.668 50 0 33.332-16.668 50 0 33.332 16.668 50 0 33.332-16.668 50 0q25 25.002 50 0t50 0 50 0v95H0Zm0 0" style="stroke:none;fill-rule:nonzero;fill:#fff;fill-opacity:1"/><path d="M0 165q25-25.002 50 0c16.668 16.668 33.332 16.668 50 0s33.332-16.668 50 0 33.332 16.668 50 0 33.332-16.668 50 0 33.332 16.668 50 0 33.332-16.668 50 0q25 25.002 50 0t50 0 50 0v85H0Zm0 0" style="stroke:none;fill-rule:nonzero;fill:#fff;fill-opacity:1"/><path d="M0 175q25-25.002 50 0c16.668 16.668 33.332 16.668 50 0s33.332-16.668 50 0 33.332 16.668 50 0 33.332-16.668 50 0 33.332 16.668 50 0 33.332-16.668 50 0q25 25.002 50 0t50 0 50 0v75H0Zm0 0" style="stroke:none;fill-rule:nonzero;fill:#fff;fill-opacity:1"/><path d="M0 185q25-25.002 50 0c16.668 16.668 33.332 16.668 50 0s33.332-16.668 50 0 33.332 16.668 50 0 33.332-16.668 50 0 33.332 16.668 50 0 33.332-16.668 50 0q25 25.002 50 0t50 0 50 0v65H0Zm0 0" style="stroke:none;fill-rule:nonzero;fill:#fff;fill-opacity:1"/><path d="M0 195q25-25.002 50 0c16.668 16.668 33.332 16.668 50 0s33.332-16.668 50 0 33.332 16.668 50 0 33.332-16.668 50 0 33.332 16.668 50 0 33.332-16.668 50 0q25 25.002 50 0t50 0 50 0v55H0Zm0 0" style="stroke:none;fill-rule:nonzero;fill:#fff;fill-opacity:1"/><path d="M0 205q25-25.002 50 0c16.668 16.668 33.332 16.668 50 0s33.332-16.668 50 0 33.332 16.668 50 0 33.332-16.668 50 0 33.332 16.668 50 0 33.332-16.668 50 0q25 25.002 50 0t50 0 50 0v45H0Zm0 0" style="stroke:none;fill-rule:nonzero;fill:#fff;fill-opacity:1"/><path d="M0 215q25-25.002 50 0c16.668 16.668 33.332 16.668 50 0s33.332-16.668 50 0 33.332 16.668 50 0 33.332-16.668 50 0 33.332 16.668 50 0 33.332-16.668 50 0q25 25.002 50 0t50 0 50 0v35H0Zm0 0" style="stroke:none;fill-rule:nonzero;fill:#fff;fill-opacity:1"/><path d="M0 225q25-25.002 50 0c16.668 16.668 33.332 16.668 50 0s33.332-16.668 50 0 33.332 16.668 50 0 33.332-16.668 50 0 33.332 16.668 50 0 33.332-16.668 50 0q25 25.002 50 0t50 0 50 0v25H0Zm0 0" style="stroke:none;fill-rule:nonzero;fill:#fff;fill-opacity:1"/><path d="M0 235q25-25.002 50 0c16.668 16.668 33.332 16.668 50 0s33.332-16.668 50 0 33.332 16.668 50 0 33.332-16.668 50 0 33.332 16.668 50 0 33.332-16.668 50 0q25 25.002 50 0t50 0 50 0v15H0Zm0 0" style="stroke:none;fill-rule:nonzero;fill:#fff;fill-opacity:1"/></svg>